<svg width="654" height="654" xmlns="http://www.w3.org/2000/svg">
 <g>
  <title>background</title>
  <rect x="-1" y="-1" width="580.761058" height="580.761058" id="canvas_background" fill="none"/>
 </g>

 <g>
  <title>Layer 1</title>
  <ellipse fill="#EBEDFE" stroke-width="0" cx="326.999987" cy="326.999989" id="svg_19" rx="327.000018" ry="326.582936"/>
  <g stroke="null" id="svg_1">
   <path stroke="null" d="m541.133253,192.693962l0.298986,-0.792272l-214.334682,-83.728686l-213.985733,84.597093l-0.698691,-0.277573l0,0.542457l-0.030136,0.016654l0.030136,0.091203l0,268.572433l214.586877,84.111736l214.617013,-84.115702l0,-269.214816l-0.48377,0.197473zm-214.235549,-68.060883l72.697144,26.035548l-198.175179,76.940045l-67.130617,-26.480458l192.608652,-76.495135zm-7.546812,402.220628l-80.370053,-32.447483l-40.33452,-15.153103l-70.896886,-27.969042l0,-236.255806l70.185506,27.685124l0,59.075451l6.254908,-1.74633l4.227039,5.808412l5.885339,-1.373589l5.699762,6.020953l4.974107,-1.713815l8.029788,7.963171l0,-60.202397l6.246977,2.466434l80.098825,31.590972l0,236.251047l-0.000793,0zm7.666564,-249.69668l-78.361218,-30.916073l193.263724,-78.326323l79.706257,32.471275l-194.608763,76.771122zm199.273574,174.127053l-191.614148,75.569628l0,-236.250254l191.595907,-75.579938l0,236.255013l0.018241,0.005551l0,0z" id="svg_2" fill="#404CFA"/>
  </g>
 </g>
</svg>